<!-- icon666.com - MILLIONS vector ICONS FREE --><svg id="svg20279" viewBox="0 0 16.933333 16.933334" xmlns="http://www.w3.org/2000/svg" xmlns:svg="http://www.w3.org/2000/svg"><g id="layer1" transform="translate(0 -280.067)"><path id="path2844" d="m14.809925 280.59626c-.581372 0-1.058333.47748-1.058333 1.05885 0 .0433.0078.0846.01292.12661l-2.305285.87746c-.19017-.28634-.514717-.47697-.8816-.47697-.5813719 0-1.0583329.47747-1.0583329 1.05885 0 .052.0081.10188.0155.15193l-2.298051.87591c-.188039-.29785-.517826-.49867-.893485-.49867-.581373 0-1.0583337.47696-1.0583337 1.05833 0 .0603.00823.11907.018087.17674l-2.2970173.87539c-.1877512-.29926-.5183081-.50126-.8950359-.50126-.5813725 0-1.0583333.47747-1.0583333 1.05885-.0000001.58138.4769608 1.05834 1.0583333 1.05834.5813724 0 1.0588503-.47696 1.0588501-1.05834 0-.0179-.00428-.0345-.00517-.0522l2.3579958-.89865c.194599.24153.48882.39997.820621.39997.581372 0 1.05885-.47747 1.05885-1.05885 0-.0188-.0047-.0363-.0057-.0548l2.345077-.89297c.1941.25236.4956849.41858.8361239.41858.581373 0 1.05885-.47696 1.05885-1.05834 0-.0272-.0062-.0528-.0083-.0796l2.329574-.88729c.193143.26356.502454.43719.852144.43719.581373 0 1.05885-.47489 1.05885-1.05627 0-.58137-.477477-1.05885-1.05885-1.05885zm-1.85105 3.70314v12.17186h3.702617v-12.17186zm-4.2348829 1.58801v10.58385h3.7051999v-10.58385zm-4.2323001 1.58802v8.99583h3.7031331v-8.99583zm-4.23436693 1.58802v7.40781h3.70520023v-7.40781z" font-variant-ligatures="normal" font-variant-position="normal" font-variant-caps="normal" font-variant-numeric="normal" font-variant-alternates="normal" font-feature-settings="normal" text-indent="0" text-align="start" text-decoration-line="none" text-decoration-style="solid" text-decoration-color="rgb(0,0,0)" text-transform="none" text-orientation="mixed" white-space="normal" shape-padding="0" isolation="auto" mix-blend-mode="normal" solid-color="rgb(0,0,0)" solid-opacity="1" vector-effect="none"></path></g></svg>