<!-- icon666.com - MILLIONS vector ICONS FREE --><svg viewBox="0 0 32 32" xmlns="http://www.w3.org/2000/svg"><g id="_x31_5"><path d="m26.7 15.3c-.2-.2-.4-.3-.7-.3h-7c-.6 0-1 .4-1 1v9h-1v-11h6c.6 0 1-.4 1-1s-.4-1-1-1h-7c-.6 0-1 .4-1 1v13c0 .6.4 1 1 1h2v2c0 .6.4 1 1 1h10c.6 0 1-.4 1-1v-10c0-.3-.1-.5-.3-.7zm.9 3.7h-1.6v-1.6zm.4 9h-8v-11h4v3c0 .6.4 1 1 1h3z"></path><path d="m21 23c0 .6.4 1 1 1h4c.6 0 1-.4 1-1s-.4-1-1-1h-4c-.6 0-1 .4-1 1z"></path><path d="m26 25h-4c-.6 0-1 .4-1 1s.4 1 1 1h4c.6 0 1-.4 1-1s-.4-1-1-1z"></path><path d="m14 28h-1v-10c0-.6-.4-1-1-1h-3c-.6 0-1 .4-1 1v2h-2c-.6 0-1 .4-1 1v2h-2c-.6 0-1 .4-1 1v5c0 .6.4 1 1 1h11c.6 0 1-.4 1-1s-.4-1-1-1zm-4-9h1v9h-1zm-3 3h1v6h-1zm-3 3h1v3h-1z"></path><path d="m8 14c3.3 0 6-2.7 6-6s-2.7-6-6-6-6 2.7-6 6 2.7 6 6 6zm2.6-3-1-2h2.2c-.1.8-.6 1.5-1.2 2zm1.3-4h-2.9v-2.9c1.4.4 2.5 1.5 2.9 2.9zm-4.9-2.9v3.9.2c0 .1 0 .1.1.2l1.7 3.5c-.2.1-.5.1-.8.1-2.2 0-4-1.8-4-4 0-1.9 1.3-3.4 3-3.9z"></path><path d="m29 2h-2c-.6 0-1 .4-1 1 0 .4.3.8.7.9l-2.7 2.7-1.3-1.3c-.4-.4-1-.4-1.4 0l-4 4c-.4.4-.4 1 0 1.4.2.2.5.3.7.3s.5-.1.7-.3l3.3-3.3 1.3 1.3c.4.4 1 .4 1.4 0l3.4-3.4c.1.4.5.7.9.7.6 0 1-.4 1-1v-2c0-.6-.4-1-1-1z"></path></g></svg>