<!-- icon666.com - MILLIONS vector ICONS FREE --><svg viewBox="0 0 464 464" xmlns="http://www.w3.org/2000/svg"><path d="m144 107.238281v100.761719h16v-107.6875l-9.574219 4.253906c-2.128906.953125-4.28125 1.785156-6.425781 2.671875zm0 0"></path><path d="m112 208h16v-94.664062c-5.296875 1.816406-10.625 3.488281-16 4.96875zm0 0"></path><path d="m80 208h16v-85.863281c-5.304688 1.109375-10.632812 2.0625-16 2.855469zm0 0"></path><path d="m424 352v-16c0-17.648438-14.351562-32-32-32s-32 14.351562-32 32v16c0 17.648438 14.351562 32 32 32s32-14.351562 32-32zm0 0"></path><path d="m208 224h32v-62.328125c0-18.886719 12.871094-34.945313 31.320312-39.054687l40.679688-9.023438v-11.699219c-14.488281-10.132812-24-26.910156-24-45.886719v-16c0-15.664062 6.480469-29.824218 16.886719-39.9999995h-304.886719v239.9999995h208zm-160-208h64v16h-64zm0 32h64v16h-64zm-32-32h16v16h-16zm0 32h16v16h-16zm176 176h-176v-16h16v-96h8c36.023438 0 70.992188-7.425781 103.921875-22.054688l32.078125-14.257812v132.3125h16zm0 0"></path><path d="m48 208h16v-81.097656c-5.3125.464844-10.640625.832031-16 .984375zm0 0"></path><path d="m344 144c-13.992188 0-23.097656-8.9375-27.664062-14.992188l-41.542969 9.230469c-11.066407 2.464844-18.792969 12.097657-18.792969 23.433594v62.328125h176v-62.328125c0-11.335937-7.726562-20.96875-18.792969-23.433594l-41.542969-9.230469c-4.566406 6.054688-13.671874 14.992188-27.664062 14.992188zm0 0"></path><path d="m360 117.800781v-8.152343c-5.070312 1.519531-10.441406 2.359374-16 2.359374s-10.929688-.839843-16-2.359374v8.152343c1.984375 3.0625 7.496094 10.207031 16 10.207031s14.015625-7.152343 16-10.207031zm0 0"></path><path d="m376 397.199219v8.59375c1.984375 3.0625 7.496094 10.207031 16 10.207031s14.015625-7.144531 16-10.207031v-8.59375c-5.015625 1.785156-10.382812 2.800781-16 2.800781s-10.984375-1.015625-16-2.800781zm0 0"></path><path d="m304 56c0 22.054688 17.945312 40 40 40s40-17.945312 40-40v-16c0-22.054688-17.945312-40-40-40s-40 17.945312-40 40zm0 0"></path><path d="m360 401.96875v-14.296875c-9.792969-8.792969-16-21.503906-16-35.679687v-16h-64v16c0 14.167968-6.207031 26.878906-16 35.679687v14.296875l32.792969 9.359375c6.0625 1.734375 11.238281 5.257813 15.207031 9.808594 3.96875-4.550781 9.144531-8.074219 15.207031-9.808594zm0 0"></path><path d="m437.199219 320h10.800781v-48h-208v16.71875c17.304688 2.921875 31.457031 15.105469 37.199219 31.28125h69.601562c6.605469-18.617188 24.34375-32 45.199219-32s38.59375 13.390625 45.199219 32zm0 0"></path><path d="m132.398438 426.71875-32.957032-9.414062c-4.640625 6.046874-13.664062 14.703124-27.441406 14.703124s-22.800781-8.648437-27.441406-14.703124l-32.957032 9.414062c-6.824218 1.953125-11.601562 8.273438-11.601562 15.386719v21.894531h144v-21.894531c0-7.113281-4.777344-13.433594-11.601562-15.386719zm0 0"></path><path d="m224 240h240v16h-240zm0 0"></path><path d="m56 397.199219v8.59375c1.984375 3.0625 7.496094 10.207031 16 10.207031s14.015625-7.144531 16-10.207031v-8.59375c-5.015625 1.785156-10.382812 2.800781-16 2.800781s-10.984375-1.015625-16-2.800781zm0 0"></path><path d="m452.398438 426.71875-32.957032-9.414062c-4.640625 6.046874-13.664062 14.703124-27.441406 14.703124s-22.800781-8.648437-27.441406-14.703124l-32.957032 9.414062c-6.824218 1.953125-11.601562 8.273438-11.601562 15.386719v21.894531h144v-21.894531c0-7.113281-4.777344-13.433594-11.601562-15.386719zm0 0"></path><path d="m292.398438 426.71875-32.957032-9.414062c-4.640625 6.046874-13.664062 14.703124-27.441406 14.703124s-22.800781-8.648437-27.441406-14.703124l-32.957032 9.414062c-6.824218 1.953125-11.601562 8.273438-11.601562 15.386719v21.894531h144v-21.894531c0-7.113281-4.777344-13.433594-11.601562-15.386719zm0 0"></path><path d="m216 397.199219v8.59375c1.984375 3.0625 7.496094 10.207031 16 10.207031s14.015625-7.144531 16-10.207031v-8.59375c-5.015625 1.785156-10.382812 2.800781-16 2.800781s-10.984375-1.015625-16-2.800781zm0 0"></path><path d="m104 352v-16c0-17.648438-14.351562-32-32-32s-32 14.351562-32 32v16c0 17.648438 14.351562 32 32 32s32-14.351562 32-32zm0 0"></path><path d="m200 336v16c0 17.648438 14.351562 32 32 32s32-14.351562 32-32v-16c0-17.648438-14.351562-32-32-32s-32 14.351562-32 32zm0 0"></path></svg>